<svg width="19" height="18" viewBox="0 0 19 18" fill="none" xmlns="http://www.w3.org/2000/svg">
<path d="M17.8334 4H8.45842M11.5834 14H2.20841M11.5834 14C11.5834 15.6569 12.9825 17 14.7084 17C16.4343 17 17.8334 15.6569 17.8334 14C17.8334 12.3431 16.4343 11 14.7084 11C12.9825 11 11.5834 12.3431 11.5834 14ZM7.41675 4C7.41675 5.65685 6.01764 7 4.29175 7C2.56586 7 1.16675 5.65685 1.16675 4C1.16675 2.34315 2.56586 1 4.29175 1C6.01764 1 7.41675 2.34315 7.41675 4Z" stroke="#4E4E4E" stroke-width="2" stroke-linecap="round" stroke-linejoin="round"/>
</svg>
